<svg id="_ionicons_svg_ios-settings" xmlns="http://www.w3.org/2000/svg" width="16" height="16" viewBox="0 0 16 16">
  <path id="Shape" d="M8,14.684A2.053,2.053,0,0,0,6.083,16,8.217,8.217,0,0,1,3.7,15.013,2.057,2.057,0,0,0,.992,12.3,8.127,8.127,0,0,1,0,9.923,2.061,2.061,0,0,0,1.321,8,2.058,2.058,0,0,0,0,6.081,8.343,8.343,0,0,1,.984,3.7a2.02,2.02,0,0,0,.837.179A2.053,2.053,0,0,0,3.7.987,8.181,8.181,0,0,1,6.08,0,2.06,2.06,0,0,0,8,1.32,2.061,2.061,0,0,0,9.921,0,8.144,8.144,0,0,1,12.3.987a2.053,2.053,0,0,0,1.879,2.891,2.086,2.086,0,0,0,.838-.179A8.166,8.166,0,0,1,16,6.078a2.06,2.06,0,0,0,0,3.845,8.228,8.228,0,0,1-.987,2.379A2.055,2.055,0,0,0,12.3,15.013,8.176,8.176,0,0,1,9.917,16,2.053,2.053,0,0,0,8,14.684Z" fill="#1d262c"/>
</svg>
