<svg id="bell-outline" xmlns="http://www.w3.org/2000/svg" width="20" height="20" viewBox="0 0 20 20">
  <rect id="Rectangle" width="20" height="20" opacity="0"/>
  <path id="Shape" d="M7.493,16.664a3.2,3.2,0,0,1-3.334-3.049v-.283h-2.8a1.367,1.367,0,0,1-.967-2.326L1.893,9.5V5.606A5.617,5.617,0,0,1,8.242.048a5.717,5.717,0,0,1,4.85,5.734V9.5l1.5,1.508a1.367,1.367,0,0,1-.967,2.326h-2.8v.283a3.2,3.2,0,0,1-3.194,3.052C7.586,16.667,7.539,16.666,7.493,16.664Z" transform="translate(2.508 1.669)" fill="#363636"/>
</svg>
