<svg id="Status_Bar_Black_" data-name="Status Bar (Black)" xmlns="http://www.w3.org/2000/svg" width="375" height="44" viewBox="0 0 375 44">
  <g id="iPhone_X_Status_Bars_Status_Bar_Black_" data-name="iPhone X/Status Bars/Status Bar (Black)">
    <rect id="Rectangle" width="375" height="44" fill="none"/>
    <g id="Battery" transform="translate(336 17)">
      <g id="Border" transform="translate(0 0.333)" fill="none" stroke="#000" stroke-miterlimit="10" stroke-width="1" opacity="0.35">
        <rect width="22" height="11.333" rx="2.667" stroke="none"/>
        <rect x="0.5" y="0.5" width="21" height="10.333" rx="2.167" fill="none"/>
      </g>
      <path id="Cap" d="M0,0V4A2.17,2.17,0,0,0,1.328,2,2.17,2.17,0,0,0,0,0" transform="translate(23 4)" opacity="0.4"/>
      <rect id="Capacity" width="18" height="7.333" rx="1.333" transform="translate(2 2.333)"/>
    </g>
    <path id="Wifi" d="M7.415,10.873l-2-2.016a.313.313,0,0,1,.01-.456,3.421,3.421,0,0,1,4.419,0,.31.31,0,0,1,.1.226.315.315,0,0,1-.094.23l-2,2.016a.311.311,0,0,1-.443,0Zm3.515-3.53a4.9,4.9,0,0,0-6.585,0,.311.311,0,0,1-.434-.006L2.758,6.17a.322.322,0,0,1,0-.459,7.158,7.158,0,0,1,9.752,0,.322.322,0,0,1,.005.459L11.364,7.337a.311.311,0,0,1-.434.006Zm2.66-2.687a8.64,8.64,0,0,0-11.907,0,.309.309,0,0,1-.434,0L.094,3.486a.322.322,0,0,1,0-.456,10.9,10.9,0,0,1,15.08,0,.323.323,0,0,1,0,.456L14.023,4.652a.307.307,0,0,1-.433,0Z" transform="translate(315.694 17.331)"/>
    <path id="Cellular_Connection" data-name="Cellular Connection" d="M15,10.667a1,1,0,0,1-1-1V1a1,1,0,0,1,1-1h1a1,1,0,0,1,1,1V9.667a1,1,0,0,1-1,1Zm-4.667,0a1,1,0,0,1-1-1V3.334a1,1,0,0,1,1-1h1a1,1,0,0,1,1,1V9.667a1,1,0,0,1-1,1Zm-4.667,0a1,1,0,0,1-1-1v-4a1,1,0,0,1,1-1h1a1,1,0,0,1,1,1v4a1,1,0,0,1-1,1ZM1,10.667a1,1,0,0,1-1-1v-2a1,1,0,0,1,1-1H2a1,1,0,0,1,1,1v2a1,1,0,0,1-1,1Z" transform="translate(293.667 17.667)"/>
    <g id="Time_Black" data-name="Time Black" transform="translate(21 13)">
      <text id="_Time" data-name="↳ Time" transform="translate(0 1.273)" font-size="14" font-family="SegoeUI, Segoe UI"><tspan x="-12.418" y="15" letter-spacing="-0.02em">9:4</tspan><tspan y="15">1</tspan></text>
    </g>
  </g>
</svg>
